<svg xmlns="http://www.w3.org/2000/svg" version="1.1" xmlns:xlink="http://www.w3.org/1999/xlink" xmlns:svgjs="http://svgjs.dev/svgjs" width="1500" height="1500" viewBox="0 0 1500 1500"><rect width="1500" height="1500" fill="#000000"></rect><g transform="matrix(0.6666666666666666,0,0,0.6666666666666666,249.39393939393938,602.7208755320902)"><svg viewBox="0 0 396 117" data-background-color="#000000" preserveAspectRatio="xMidYMid meet" height="443" width="1500" xmlns="http://www.w3.org/2000/svg" xmlns:xlink="http://www.w3.org/1999/xlink"><g id="tight-bounds" transform="matrix(1,0,0,1,0.2400000000000091,-0.15352969725014987)"><svg viewBox="0 0 395.52 117.30705939450031" height="117.30705939450031" width="395.52"><g><svg viewBox="0 0 609.8639253647684 180.8792064" height="117.30705939450031" width="395.52"><g transform="matrix(1,0,0,1,214.3439253647685,46.736747055387596)"><svg viewBox="0 0 395.52 87.4057122892248" height="87.4057122892248" width="395.52"><g id="textblocktransform"><svg viewBox="0 0 395.52 87.4057122892248" height="87.4057122892248" width="395.52" id="textblock"><g><svg viewBox="0 0 395.52 56.701602813955695" height="56.701602813955695" width="395.52"><g transform="matrix(1,0,0,1,0,0)"><svg width="395.52" viewBox="0.66 -36.18 256.78999999999996 36.81" height="56.701602813955695" data-palette-color="#4ea9f3"><path d="M26.25-12.99L26.25-12.99Q26.25-9.64 25.09-7.14 23.93-4.64 21.91-2.98 19.9-1.32 17.2-0.49 14.5 0.34 11.4 0.34L11.4 0.34Q10.21 0.34 8.78 0.02 7.35-0.29 5.88-0.77 4.42-1.25 3.06-1.79 1.71-2.34 0.66-2.83L0.66-2.83 1.73-12.89Q3.81-11.65 6.34-11 8.86-10.35 11.3-10.35L11.3-10.35Q11.77-10.35 12.43-10.39 13.09-10.42 13.68-10.61 14.28-10.79 14.7-11.16 15.11-11.52 15.11-12.21L15.11-12.21Q15.11-12.67 14.82-13 14.53-13.33 14.06-13.54 13.6-13.75 13.01-13.85 12.43-13.96 11.87-14.01 11.3-14.06 10.82-14.06 10.33-14.06 10.03-14.06L10.03-14.06Q7.93-14.06 6.21-14.79 4.49-15.53 3.26-16.83 2.03-18.14 1.34-19.93 0.66-21.73 0.66-23.83L0.66-23.83Q0.66-26.71 1.82-28.99 2.98-31.27 4.92-32.87 6.86-34.47 9.38-35.33 11.89-36.18 14.58-36.18L14.58-36.18Q15.77-36.18 17.04-36.1 18.31-36.01 19.57-35.79 20.83-35.57 22.02-35.23 23.22-34.89 24.29-34.38L24.29-34.38 23.36-24.46Q21.7-25.02 19.89-25.4 18.07-25.78 16.33-25.78L16.33-25.78Q16.02-25.78 15.52-25.77 15.01-25.76 14.47-25.7 13.92-25.63 13.35-25.51 12.79-25.39 12.35-25.18 11.91-24.98 11.65-24.63 11.38-24.29 11.4-23.83L11.4-23.83Q11.43-23.29 11.8-22.96 12.18-22.63 12.78-22.45 13.38-22.27 14.1-22.19 14.82-22.12 15.53-22.11 16.24-22.09 16.85-22.11 17.46-22.12 17.85-22.07L17.85-22.07Q19.8-21.95 21.36-21.24 22.92-20.53 24.01-19.36 25.1-18.19 25.67-16.56 26.25-14.94 26.25-12.99ZM55.03-19.73L55.03-19.73Q55.03-17.6 54.73-15.48L54.73-15.48Q50.56-15.21 46.43-14.61 42.31-14.01 38.18-13.43L38.18-13.43Q38.82-11.67 40.17-10.62 41.53-9.57 43.41-9.57L43.41-9.57Q44.38-9.57 45.54-9.94 46.7-10.3 47.85-10.85 49-11.4 50.05-12.04 51.1-12.67 51.85-13.18L51.85-13.18 50.68-2.1Q49.73-1.37 48.62-0.85 47.51-0.34 46.31-0.02 45.11 0.29 43.89 0.44 42.67 0.59 41.5 0.59L41.5 0.59Q39.08 0.59 37.08-0.07 35.08-0.73 33.46-1.92 31.83-3.1 30.61-4.71 29.39-6.32 28.59-8.23 27.78-10.13 27.37-12.26 26.95-14.38 26.95-16.55L26.95-16.55Q26.95-18.82 27.37-21.09 27.78-23.36 28.62-25.46 29.47-27.56 30.75-29.36 32.03-31.15 33.74-32.5 35.45-33.84 37.61-34.59 39.77-35.35 42.38-35.35L42.38-35.35Q44.55-35.35 46.35-34.75 48.14-34.16 49.55-33.09 50.95-32.03 51.99-30.57 53.02-29.1 53.7-27.36 54.37-25.61 54.7-23.67 55.03-21.73 55.03-19.73ZM45.26-20.46L45.26-21Q45.26-21.68 45.11-22.4 44.97-23.12 44.64-23.71 44.31-24.29 43.77-24.67 43.23-25.05 42.43-25.05L42.43-25.05Q41.45-25.05 40.71-24.52 39.96-24 39.43-23.21 38.89-22.41 38.55-21.48 38.21-20.56 38.03-19.78L38.03-19.78 45.26-20.46ZM98.95-16.55L98.95-16.55Q98.95-13.06 98.73-9.59 98.51-6.13 98.21-2.64L98.21-2.64 85.66-2.05Q86.23-6.3 86.68-10.56 87.13-14.82 87.13-19.09L87.13-19.09Q87.13-19.36 87.1-20.03 87.08-20.7 87.02-21.56 86.96-22.41 86.85-23.33 86.74-24.24 86.56-25.01 86.37-25.78 86.1-26.27 85.83-26.76 85.47-26.76L85.47-26.76Q84.61-26.76 84.13-26.11 83.64-25.46 83.41-24.56 83.17-23.66 83.12-22.72 83.08-21.78 83.08-21.19L83.08-21.19Q83.08-20.17 83.12-19.14 83.17-18.12 83.17-17.04L83.17-17.04Q83.17-13.26 82.99-9.5 82.81-5.74 82.54-1.95L82.54-1.95 70.97-1.51Q71.53-5.76 71.96-10 72.38-14.23 72.38-18.51L72.38-18.51Q72.38-18.77 72.36-19.48 72.33-20.19 72.27-21.07 72.21-21.95 72.09-22.9 71.97-23.85 71.78-24.65 71.6-25.44 71.33-25.95 71.06-26.46 70.67-26.46L70.67-26.46Q70.06-26.46 69.65-25.99 69.23-25.51 68.98-24.76 68.72-24 68.59-23.08 68.45-22.17 68.39-21.29 68.33-20.41 68.32-19.67 68.31-18.92 68.28-18.55L68.28-18.55 67.74-0.73 55.44-0.73Q55.83-4.86 56.23-9.01 56.64-13.16 56.94-17.3 57.25-21.44 57.44-25.59 57.64-29.74 57.64-33.89L57.64-33.89 69.26-34.38 69.21-31.54Q69.75-32.23 70.43-32.92 71.11-33.62 71.88-34.17 72.65-34.72 73.52-35.06 74.38-35.4 75.31-35.4L75.31-35.4Q76.51-35.4 77.46-35.22 78.41-35.03 79.18-34.59 79.95-34.16 80.54-33.39 81.12-32.62 81.56-31.45L81.56-31.45Q82.34-32.3 83.14-33.03 83.93-33.76 84.81-34.29 85.69-34.81 86.71-35.11 87.74-35.4 88.98-35.4L88.98-35.4Q91.35-35.4 93.01-34.48 94.67-33.57 95.78-32.06 96.89-30.54 97.52-28.59 98.14-26.64 98.46-24.54 98.77-22.44 98.86-20.36 98.95-18.29 98.95-16.55ZM100.92-33.69L113.91-34.38 112.2-1.12 101.9-0.59 100.92-33.69ZM139.17-33.35L139.17-33.35 138.3-23.05Q137.59-23.24 136.9-23.32 136.22-23.39 135.51-23.39L135.51-23.39Q133.78-23.39 132.2-22.95 130.63-22.51 129.42-21.61 128.21-20.7 127.49-19.32 126.77-17.94 126.77-16.06L126.77-16.06Q126.77-14.7 127.18-13.68 127.58-12.67 128.32-12 129.07-11.33 130.13-10.99 131.19-10.64 132.49-10.64L132.49-10.64Q133.39-10.64 134.34-10.83 135.29-11.01 136.24-11.33 137.2-11.65 138.08-12.06 138.95-12.48 139.71-12.94L139.71-12.94 139.32-1.46Q138.37-0.98 137.27-0.6 136.17-0.22 135.01 0.06 133.85 0.34 132.69 0.49 131.53 0.63 130.48 0.63L130.48 0.63Q127.02 0.63 124.17-0.66 121.33-1.95 119.29-4.19 117.25-6.42 116.13-9.38 115-12.33 115-15.67L115-15.67Q115-19.68 116.14-23.14 117.28-26.61 119.48-29.16 121.69-31.71 124.95-33.17 128.21-34.62 132.44-34.62L132.44-34.62Q134.12-34.62 135.85-34.35 137.59-34.08 139.17-33.35ZM171.28-18.7L171.28-18.7Q171.28-16.48 170.76-14.42 170.25-12.35 169.29-10.55 168.32-8.74 166.94-7.24 165.56-5.74 163.84-4.66 162.12-3.59 160.09-2.99 158.07-2.39 155.8-2.39L155.8-2.39Q153.6-2.39 151.61-2.95 149.62-3.52 147.89-4.53 146.15-5.54 144.75-6.97 143.35-8.4 142.36-10.14 141.37-11.89 140.82-13.89 140.27-15.89 140.27-18.07L140.27-18.07Q140.27-20.19 140.78-22.23 141.3-24.27 142.26-26.07 143.22-27.88 144.59-29.39 145.96-30.91 147.66-32.01 149.35-33.11 151.33-33.72 153.31-34.33 155.51-34.33L155.51-34.33Q159.05-34.33 161.96-33.23 164.88-32.13 166.94-30.09 169.01-28.05 170.14-25.16 171.28-22.27 171.28-18.7ZM160.44-18.07L160.44-18.07Q160.44-19.12 160.13-20.1 159.83-21.09 159.24-21.86 158.65-22.63 157.79-23.11 156.92-23.58 155.8-23.58L155.8-23.58Q154.65-23.58 153.75-23.17 152.84-22.75 152.2-22.03 151.55-21.31 151.21-20.35 150.87-19.38 150.87-18.31L150.87-18.31Q150.87-17.29 151.16-16.26 151.45-15.23 152.04-14.4 152.62-13.57 153.49-13.06 154.36-12.55 155.51-12.55L155.51-12.55Q156.65-12.55 157.57-13 158.48-13.45 159.12-14.22 159.75-14.99 160.09-15.99 160.44-16.99 160.44-18.07ZM184.48-12.94L194.39-12.94 193.37-2.1 172.81-0.49 173.59-35.35 186.29-35.35 184.48-12.94ZM225.71-18.7L225.71-18.7Q225.71-16.48 225.2-14.42 224.69-12.35 223.73-10.55 222.76-8.74 221.38-7.24 220-5.74 218.28-4.66 216.56-3.59 214.53-2.99 212.51-2.39 210.24-2.39L210.24-2.39Q208.04-2.39 206.05-2.95 204.06-3.52 202.33-4.53 200.59-5.54 199.19-6.97 197.79-8.4 196.8-10.14 195.81-11.89 195.26-13.89 194.71-15.89 194.71-18.07L194.71-18.07Q194.71-20.19 195.22-22.23 195.73-24.27 196.7-26.07 197.66-27.88 199.03-29.39 200.4-30.91 202.09-32.01 203.79-33.11 205.77-33.72 207.75-34.33 209.94-34.33L209.94-34.33Q213.48-34.33 216.4-33.23 219.32-32.13 221.38-30.09 223.44-28.05 224.58-25.16 225.71-22.27 225.71-18.7ZM214.88-18.07L214.88-18.07Q214.88-19.12 214.57-20.1 214.26-21.09 213.68-21.86 213.09-22.63 212.23-23.11 211.36-23.58 210.24-23.58L210.24-23.58Q209.09-23.58 208.19-23.17 207.28-22.75 206.64-22.03 205.99-21.31 205.65-20.35 205.3-19.38 205.3-18.31L205.3-18.31Q205.3-17.29 205.6-16.26 205.89-15.23 206.48-14.4 207.06-13.57 207.93-13.06 208.8-12.55 209.94-12.55L209.94-12.55Q211.09-12.55 212.01-13 212.92-13.45 213.56-14.22 214.19-14.99 214.53-15.99 214.88-16.99 214.88-18.07ZM257.45-12.35L257.45-12.35Q257.45-9.59 257.39-6.9 257.33-4.2 257.21-1.46L257.21-1.46 243.14-1.71Q243.88-6.03 244.41-10.34 244.95-14.65 244.95-19.04L244.95-19.04Q244.95-19.36 244.93-20.07 244.9-20.78 244.83-21.67 244.76-22.56 244.62-23.5 244.49-24.44 244.25-25.22 244.02-26 243.69-26.5 243.36-27 242.9-27L242.9-27Q242.07-27 241.5-26.51 240.92-26.03 240.54-25.26 240.17-24.49 239.95-23.54 239.73-22.58 239.62-21.63 239.51-20.68 239.47-19.84 239.43-18.99 239.43-18.46L239.43-18.46Q239.31-14.14 239.24-9.88 239.16-5.62 239.04-1.27L239.04-1.27 226.59-0.73Q227.08-9.35 227.53-17.87 227.98-26.39 228.25-35.01L228.25-35.01 239.77-35.6 239.68-31.69Q240.36-32.52 241.15-33.25 241.95-33.98 242.85-34.51 243.75-35.03 244.77-35.34 245.78-35.64 246.9-35.64L246.9-35.64Q248.98-35.64 250.54-34.96 252.1-34.28 253.23-33.11 254.35-31.93 255.11-30.33 255.86-28.74 256.33-26.93 256.79-25.12 257.04-23.16 257.28-21.19 257.37-19.29 257.45-17.38 257.45-15.6 257.45-13.82 257.45-12.35Z" opacity="1" transform="matrix(1,0,0,1,0,0)" fill="#4ea9f3" class="wordmark-text-0" data-fill-palette-color="primary" id="text-0"></path></svg></g></svg></g><g transform="matrix(1,0,0,1,0,70.0874903998631)"><svg viewBox="0 0 232.209792 17.318221889361702" height="17.318221889361702" width="232.209792"><g transform="matrix(1,0,0,1,0,0)"><svg width="232.209792" viewBox="3 -37.8 669.68 49.949999999999996" height="17.318221889361702" data-palette-color="#fcdb7c"><path d="M12.55 0L3.5 0 3.5-27.4 3-32.4 3.5-35.4 12.55-35.4 12.55 0ZM27.55 0L18.55 0 18.55-15.05 17.55-20.55 19.1-23.6 26.55-23.6 26.55-21.45 27-21.15Q27.55-21.65 28.52-22.33 29.5-23 30.9-23.55 32.3-24.1 34.05-24.1L34.05-24.1Q38.55-24.1 40.8-21.55 43.05-19 43.05-14.4L43.05-14.4 43.05-8.05 44.1-3.05 43.05 0 34.05 0 34.05-13.1Q34.05-15 33.22-16.03 32.4-17.05 30.65-17.05L30.65-17.05 27.55-16.1 27.55 0ZM58.7 12.15L58.7 12.15Q57.45 12.15 55.85 12.08 54.25 12 53.25 11.9L53.25 11.9 47.15 8.95 49.65 2.45 57.5 5Q64.15 5 64.15-0.55L64.15-0.55 64.15-1.5 63.65-1.75Q62.95-1.05 61.42-0.33 59.9 0.4 56.65 0.4L56.65 0.4Q54.3 0.4 52.1-0.78 49.9-1.95 48.52-4.55 47.15-7.15 47.15-11.3L47.15-11.3Q47.15-15.95 48.55-18.78 49.95-21.6 52.12-22.9 54.3-24.2 56.65-24.2L56.65-24.2Q59.25-24.2 60.92-23.45 62.59-22.7 63.15-22L63.15-22 63.15-23.65 72.2-23.65 72.7-20.65 72.15-17.65 72.2-0.05Q72.2 4.25 70.52 6.95 68.84 9.65 65.82 10.9 62.8 12.15 58.7 12.15ZM60.4-6.65L60.4-6.65Q61.3-6.65 62.05-6.9 62.8-7.15 63.15-7.35L63.15-7.35 63.15-16.7Q62.95-16.85 62.4-17 61.85-17.15 60.9-17.15L60.9-17.15Q58.95-17.15 57.8-15.9 56.65-14.65 56.65-11.85L56.65-11.85Q56.65-9.1 57.75-7.88 58.85-6.65 60.4-6.65ZM86.69 0L77.69 0 77.69-15.05 76.69-20.55 78.24-23.6 85.69-23.6 85.69-21.45 86.14-21.15Q86.69-21.65 87.67-22.33 88.64-23 90.04-23.55 91.44-24.1 93.19-24.1L93.19-24.1Q97.69-24.1 99.94-21.55 102.19-19 102.19-14.4L102.19-14.4 102.19-8.05 103.24-3.05 102.19 0 93.19 0 93.19-13.1Q93.19-15 92.37-16.03 91.54-17.05 89.79-17.05L89.79-17.05 86.69-16.1 86.69 0ZM118.89-31.45L112.54-25.05 106.19-31.45 112.54-37.8 118.89-31.45ZM117.04 0L108.04 0 108.04-16.55 106.99-20.55 107.99-23.6 117.04-23.6 117.04 0ZM131.29 0.5L131.29 0.5Q127.89 0.5 125.84-1.5 123.79-3.5 123.79-6.55L123.79-6.55 123.79-17.45 120.14-17.45 120.14-22.2 123.29-24.65 126.84-30.85 132.74-30.85 132.74-23.6 139.74-23.6 139.74-17.1 132.74-17.1 132.74-6.4 139.74-6.45 139.74-1Q139.74-1 138.56-0.63 137.39-0.25 135.49 0.13 133.59 0.5 131.29 0.5ZM155.74 0.5L155.74 0.5Q151.89 0.5 148.89-0.65 145.89-1.8 144.19-4.5 142.49-7.2 142.49-11.8L142.49-11.8Q142.49-15.1 143.61-17.45 144.74-19.8 146.64-21.28 148.54-22.75 150.89-23.43 153.24-24.1 155.74-24.1L155.74-24.1Q160.04-24.1 162.36-23.25 164.69-22.4 165.44-21.9L165.44-21.9 167.94-13.95 166.94-10.85 151.44-10.85Q151.79-9 153.29-7.75 154.79-6.5 158.24-6.5L158.24-6.5Q160.94-6.5 162.89-7.1 164.84-7.7 165.94-8.15L165.94-8.15 165.94-1.45Q164.44-0.65 161.61-0.08 158.79 0.5 155.74 0.5ZM151.49-14.05L151.49-14.05 158.39-15.05 157.94-17.2Q157.59-17.4 156.91-17.5 156.24-17.6 155.74-17.6L155.74-17.6Q154.34-17.6 153.41-17 152.49-16.4 152.01-15.58 151.54-14.75 151.49-14.05ZM186.18 12.15L186.18 12.15 179.13 9.65 181.13 2.2 188.13 4.2Q190.28 4.2 191.26 3.08 192.23 1.95 192.73-0.05L192.73-0.05 187.58-0.05 182.08-17.15 181.13-23.65 190.63-23.65 193.38-7.15 194.38-7.15 197.13-23.65 206.63-23.65Q206.63-23.65 206.31-22.08 205.98-20.5 205.41-17.9 204.83-15.3 204.06-12.18 203.28-9.05 202.43-5.88 201.58-2.7 200.68-0.05L200.68-0.05Q199.33 4.1 197.46 6.8 195.58 9.5 192.88 10.83 190.18 12.15 186.18 12.15ZM220.18 0.5L220.18 0.5Q214.08 0.5 210.73-2.4 207.38-5.3 207.38-11.8L207.38-11.8Q207.38-18.35 210.73-21.23 214.08-24.1 220.18-24.1L220.18-24.1Q226.43-24.1 229.65-21.23 232.88-18.35 232.88-11.8L232.88-11.8Q232.88-5.3 229.65-2.4 226.43 0.5 220.18 0.5ZM220.18-6L220.18-6Q222.23-6 223.03-7.53 223.83-9.05 223.83-11.8L223.83-11.8Q223.83-14.6 223.03-16.1 222.23-17.6 220.18-17.6L220.18-17.6Q218.08-17.6 217.25-16.1 216.43-14.6 216.43-11.8L216.43-11.8Q216.43-9.05 217.25-7.53 218.08-6 220.18-6ZM243.63 0.5L243.63 0.5Q240.63 0.5 239-0.65 237.38-1.8 236.75-3.98 236.13-6.15 236.13-9.2L236.13-9.2 236.13-23.65 245.13-23.65 245.13-10.5Q245.13-8.65 245.85-7.6 246.58-6.55 248.03-6.55L248.03-6.55Q249.38-6.55 250.5-7.7 251.63-8.85 251.63-11.05L251.63-11.05 251.63-23.65 260.63-23.65 260.63-8.05 261.68-3.05 260.63 0 252.18 0 252.18-2.45 251.68-2.7Q251.03-2.05 249.8-1.3 248.58-0.55 247-0.03 245.43 0.5 243.63 0.5ZM275.42 0L266.52 0 266.52-15.65 265.47-20.65 266.52-23.65 273.32-23.65 274.32-22.5Q274.32-22.5 275.02-22.93 275.72-23.35 277-23.75 278.27-24.15 279.97-24.15L279.97-24.15Q280.97-24.15 281.97-24 282.97-23.85 283.52-23.6L283.52-23.6 286.77-20.85 283.52-14.45 276.92-17.2 275.42-16.7 275.42 0ZM312.82 0.5L312.82 0.5Q306.72 0.5 303.37-2.4 300.02-5.3 300.02-11.8L300.02-11.8Q300.02-18.35 303.37-21.23 306.72-24.1 312.82-24.1L312.82-24.1Q319.07-24.1 322.29-21.23 325.52-18.35 325.52-11.8L325.52-11.8Q325.52-5.3 322.29-2.4 319.07 0.5 312.82 0.5ZM312.82-6L312.82-6Q314.87-6 315.67-7.53 316.47-9.05 316.47-11.8L316.47-11.8Q316.47-14.6 315.67-16.1 314.87-17.6 312.82-17.6L312.82-17.6Q310.72-17.6 309.89-16.1 309.07-14.6 309.07-11.8L309.07-11.8Q309.07-9.05 309.89-7.53 310.72-6 312.82-6ZM338.77 0L329.77 0 329.77-15.05 328.77-20.55 330.32-23.6 337.77-23.6 337.77-21.45 338.22-21.15Q338.77-21.65 339.74-22.33 340.72-23 342.12-23.55 343.52-24.1 345.27-24.1L345.27-24.1Q349.77-24.1 352.02-21.55 354.27-19 354.27-14.4L354.27-14.4 354.27-8.05 355.32-3.05 354.27 0 345.27 0 345.27-13.1Q345.27-15 344.44-16.03 343.62-17.05 341.87-17.05L341.87-17.05 338.77-16.1 338.77 0ZM369.16 0L360.16 0 360.11-27.4 359.11-32.4 360.16-35.4 369.16-35.4 369.16 0ZM386.01-31.45L379.66-25.05 373.31-31.45 379.66-37.8 386.01-31.45ZM384.16 0L375.16 0 375.16-16.55 374.11-20.55 375.11-23.6 384.16-23.6 384.16 0ZM398.76 0L389.76 0 389.76-15.05 388.76-20.55 390.31-23.6 397.76-23.6 397.76-21.45 398.21-21.15Q398.76-21.65 399.73-22.33 400.71-23 402.11-23.55 403.51-24.1 405.26-24.1L405.26-24.1Q409.76-24.1 412.01-21.55 414.26-19 414.26-14.4L414.26-14.4 414.26-8.05 415.31-3.05 414.26 0 405.26 0 405.26-13.1Q405.26-15 404.43-16.03 403.61-17.05 401.86-17.05L401.86-17.05 398.76-16.1 398.76 0ZM431.61 0.5L431.61 0.5Q427.76 0.5 424.76-0.65 421.76-1.8 420.06-4.5 418.36-7.2 418.36-11.8L418.36-11.8Q418.36-15.1 419.48-17.45 420.61-19.8 422.51-21.28 424.41-22.75 426.76-23.43 429.11-24.1 431.61-24.1L431.61-24.1Q435.91-24.1 438.23-23.25 440.56-22.4 441.31-21.9L441.31-21.9 443.81-13.95 442.81-10.85 427.31-10.85Q427.66-9 429.16-7.75 430.66-6.5 434.11-6.5L434.11-6.5Q436.81-6.5 438.76-7.1 440.71-7.7 441.81-8.15L441.81-8.15 441.81-1.45Q440.31-0.65 437.48-0.08 434.66 0.5 431.61 0.5ZM427.36-14.05L427.36-14.05 434.26-15.05 433.81-17.2Q433.46-17.4 432.78-17.5 432.11-17.6 431.61-17.6L431.61-17.6Q430.21-17.6 429.28-17 428.36-16.4 427.88-15.58 427.41-14.75 427.36-14.05ZM469 12.15L460 12.15 460-15.1 459-20.6 460.55-23.65 468-23.65 468-21.5 468.5-21.25Q468.5-21.25 469.4-22 470.3-22.75 471.88-23.48 473.45-24.2 475.55-24.2L475.55-24.2Q480-24.2 482.53-21.35 485.05-18.5 485.05-12.35L485.05-12.35Q485.05-7.75 483.78-4.93 482.5-2.1 480.35-0.85 478.2 0.4 475.55 0.4L475.55 0.4Q471.95 0.4 470.48-0.18 469-0.75 469-0.75L469-0.75 469 12.15ZM471.3-6.45L471.3-6.45Q473.2-6.45 474.38-7.8 475.55-9.15 475.55-11.9L475.55-11.9Q475.55-14.6 474.6-15.85 473.65-17.1 471.8-17.1L471.8-17.1 469-16.05 469-7.1Q469-7.1 469.53-6.78 470.05-6.45 471.3-6.45ZM498.25 0L489.35 0 489.35-15.65 488.3-20.65 489.35-23.65 496.15-23.65 497.15-22.5Q497.15-22.5 497.85-22.93 498.55-23.35 499.82-23.75 501.1-24.15 502.8-24.15L502.8-24.15Q503.8-24.15 504.8-24 505.8-23.85 506.35-23.6L506.35-23.6 509.6-20.85 506.35-14.45 499.75-17.2 498.25-16.7 498.25 0ZM522.6 0.5L522.6 0.5Q518.75 0.5 515.75-0.65 512.75-1.8 511.05-4.5 509.35-7.2 509.35-11.8L509.35-11.8Q509.35-15.1 510.47-17.45 511.6-19.8 513.5-21.28 515.4-22.75 517.75-23.43 520.1-24.1 522.6-24.1L522.6-24.1Q526.9-24.1 529.22-23.25 531.55-22.4 532.3-21.9L532.3-21.9 534.8-13.95 533.8-10.85 518.3-10.85Q518.65-9 520.15-7.75 521.65-6.5 525.1-6.5L525.1-6.5Q527.8-6.5 529.75-7.1 531.7-7.7 532.8-8.15L532.8-8.15 532.8-1.45Q531.3-0.65 528.47-0.08 525.65 0.5 522.6 0.5ZM518.35-14.05L518.35-14.05 525.25-15.05 524.8-17.2Q524.45-17.4 523.77-17.5 523.1-17.6 522.6-17.6L522.6-17.6Q521.2-17.6 520.27-17 519.35-16.4 518.87-15.58 518.4-14.75 518.35-14.05ZM548.74 0.5L548.74 0.5Q545.09 0.5 542.29-0.25 539.49-1 537.94-1.8L537.94-1.8 537.94-8.75Q539.99-7.85 542.17-7.35 544.34-6.85 546.09-6.68 547.84-6.5 548.59-6.5L548.59-6.5Q549.44-6.5 549.79-6.78 550.14-7.05 550.14-7.45L550.14-7.45Q550.14-8 549.24-8.38 548.34-8.75 545.84-9.35L545.84-9.35Q543.79-9.85 541.87-10.63 539.94-11.4 538.72-12.8 537.49-14.2 537.49-16.55L537.49-16.55Q537.49-19.45 538.84-21.1 540.19-22.75 542.69-23.43 545.19-24.1 548.54-24.1L548.54-24.1Q550.44-24.1 552.09-23.9 553.74-23.7 554.44-23.6L554.44-23.6 559.09-20.6 556.84-15.25 548.09-17.15Q546.49-17.15 546.49-16.1L546.49-16.1Q546.49-15 548.79-14.45L548.79-14.45Q550.59-14.05 552.49-13.58 554.39-13.1 555.97-12.35 557.54-11.6 558.52-10.35 559.49-9.1 559.49-7.05L559.49-7.05Q559.49-3.25 556.77-1.38 554.04 0.5 548.74 0.5ZM575.49 0.5L575.49 0.5Q571.64 0.5 568.64-0.65 565.64-1.8 563.94-4.5 562.24-7.2 562.24-11.8L562.24-11.8Q562.24-15.1 563.37-17.45 564.49-19.8 566.39-21.28 568.29-22.75 570.64-23.43 572.99-24.1 575.49-24.1L575.49-24.1Q579.79-24.1 582.12-23.25 584.44-22.4 585.19-21.9L585.19-21.9 587.69-13.95 586.69-10.85 571.19-10.85Q571.54-9 573.04-7.75 574.54-6.5 577.99-6.5L577.99-6.5Q580.69-6.5 582.64-7.1 584.59-7.7 585.69-8.15L585.69-8.15 585.69-1.45Q584.19-0.65 581.37-0.08 578.54 0.5 575.49 0.5ZM571.24-14.05L571.24-14.05 578.14-15.05 577.69-17.2Q577.34-17.4 576.66-17.5 575.99-17.6 575.49-17.6L575.49-17.6Q574.09-17.6 573.16-17 572.24-16.4 571.76-15.58 571.29-14.75 571.24-14.05ZM600.89 0L591.89 0 591.89-15.05 590.89-20.55 592.44-23.6 599.89-23.6 599.89-21.45 600.34-21.15Q600.89-21.65 601.86-22.33 602.84-23 604.24-23.55 605.64-24.1 607.39-24.1L607.39-24.1Q611.89-24.1 614.14-21.55 616.39-19 616.39-14.4L616.39-14.4 616.39-8.05 617.44-3.05 616.39 0 607.39 0 607.39-13.1Q607.39-15 606.56-16.03 605.74-17.05 603.99-17.05L603.99-17.05 600.89-16.1 600.89 0ZM632.73 0.5L632.73 0.5Q629.28 0.5 626.51-0.65 623.73-1.8 622.11-4.5 620.48-7.2 620.48-11.8L620.48-11.8Q620.48-16.45 622.23-19.13 623.98-21.8 626.78-22.95 629.58-24.1 632.73-24.1L632.73-24.1Q635.48-24.1 637.46-23.9 639.43-23.7 640.08-23.55L640.08-23.55 643.98-19.15 639.98-13.7 634.23-17.1Q629.93-17.1 629.93-11.8L629.93-11.8Q629.93-9.05 631.23-7.78 632.53-6.5 635.23-6.5L635.23-6.5Q637.93-6.5 640.08-7.25 642.23-8 643.43-8.65L643.43-8.65 643.43-1.45Q641.88-0.65 639.36-0.08 636.83 0.5 632.73 0.5ZM660.48 0.5L660.48 0.5Q656.63 0.5 653.63-0.65 650.63-1.8 648.93-4.5 647.23-7.2 647.23-11.8L647.23-11.8Q647.23-15.1 648.36-17.45 649.48-19.8 651.38-21.28 653.28-22.75 655.63-23.43 657.98-24.1 660.48-24.1L660.48-24.1Q664.78-24.1 667.11-23.25 669.43-22.4 670.18-21.9L670.18-21.9 672.68-13.95 671.68-10.85 656.18-10.85Q656.53-9 658.03-7.75 659.53-6.5 662.98-6.5L662.98-6.5Q665.68-6.5 667.63-7.1 669.58-7.7 670.68-8.15L670.68-8.15 670.68-1.45Q669.18-0.65 666.36-0.08 663.53 0.5 660.48 0.5ZM656.23-14.05L656.23-14.05 663.13-15.05 662.68-17.2Q662.33-17.4 661.66-17.5 660.98-17.6 660.48-17.6L660.48-17.6Q659.08-17.6 658.16-17 657.23-16.4 656.76-15.58 656.28-14.75 656.23-14.05Z" opacity="1" transform="matrix(1,0,0,1,0,0)" fill="#fcdb7c" class="slogan-text-1" data-fill-palette-color="secondary" id="text-1"></path></svg></g></svg></g></svg></g></svg></g><g><svg viewBox="0 0 180.8792064 180.8792064" height="180.8792064" width="180.8792064"><g><svg viewBox="0 0 180.8792064 180.8792064" height="180.8792064" width="180.8792064"><g transform="matrix(1,0,0,1,77.15599724189879,47.805965392972944)"><svg viewBox="0 0 26.5672119162024 85.2672756140541" height="85.2672756140541" width="26.5672119162024"><g><svg xmlns="http://www.w3.org/2000/svg" xmlns:xlink="http://www.w3.org/1999/xlink" version="1.1" x="0" y="0" viewBox="37.2449998573299 9.059 25.514000142670085 81.887" enable-background="new 0 0 100 100" xml:space="preserve" height="85.2672756140541" width="26.5672119162024" class="icon-cg-0" data-fill-palette-color="accent" id="cg-0"><g fill="#fcdb7c" data-fill-palette-color="accent"><path d="M62.756 57.203c-0.415-6.736-6.003-12.012-12.721-12.012-7.052 0-12.79 5.74-12.79 12.795-0.001 6.777 5.255 12.355 12.068 12.771-0.155 2.396-0.951 4.316-2.417 5.847-1.717 1.782-4.517 3.187-8.32 4.173-0.662 0.172-1.124 0.769-1.124 1.452v7.217c0 0.426 0.181 0.831 0.497 1.115 0.277 0.249 0.635 0.385 1.003 0.385 0.052 0 0.105-0.003 0.158-0.009 7.813-0.826 13.775-3.566 17.721-8.143 3.934-4.561 5.928-11.041 5.928-19.261L62.756 57.203zM59.759 63.533c0 7.479-1.749 13.301-5.199 17.302-3.157 3.66-7.897 5.98-14.107 6.908V83.37c3.792-1.117 6.683-2.691 8.606-4.688 2.179-2.271 3.283-5.239 3.283-8.8l0.008-0.598c0.005-0.401-0.15-0.788-0.433-1.073-0.281-0.285-0.666-0.446-1.067-0.446l-1.297 0.002c-5.22-0.254-9.309-4.551-9.308-9.781 0-5.401 4.392-9.795 9.79-9.795 5.137 0 9.408 4.04 9.724 9.104V63.533z" fill="#fcdb7c" data-fill-palette-color="accent"></path><path d="M50 34.063c6.894 0 12.502-5.608 12.502-12.502S56.894 9.059 50 9.059s-12.502 5.608-12.502 12.502S43.106 34.063 50 34.063zM50 12.059c5.239 0 9.502 4.263 9.502 9.502S55.239 31.063 50 31.063s-9.502-4.263-9.502-9.502S44.761 12.059 50 12.059z" fill="#fcdb7c" data-fill-palette-color="accent"></path></g></svg></g></svg></g><g id="text-0"><path d="M18.597 57.21v0c1.082 0.38 1.963 0.897 2.644 1.553 0.679 0.662 1.174 1.415 1.484 2.259 0.305 0.842 0.439 1.747 0.403 2.716-0.036 0.969-0.23 1.953-0.581 2.953v0c-0.137 0.39-0.34 0.799-0.611 1.227-0.262 0.424-0.555 0.847-0.88 1.27-0.317 0.419-0.64 0.817-0.971 1.195-0.337 0.376-0.644 0.706-0.92 0.991v0l-4.704-2.234c0.639-0.532 1.205-1.17 1.7-1.915 0.503-0.749 0.894-1.519 1.172-2.311v0c0.051-0.145 0.107-0.326 0.17-0.544 0.062-0.218 0.097-0.436 0.102-0.653 0.012-0.215-0.019-0.409-0.092-0.583-0.071-0.18-0.216-0.309-0.436-0.387v0c-0.151-0.053-0.296-0.051-0.437 0.006-0.14 0.057-0.271 0.148-0.393 0.275-0.116 0.129-0.226 0.281-0.33 0.457-0.106 0.182-0.198 0.361-0.274 0.539-0.081 0.169-0.15 0.336-0.207 0.499-0.055 0.157-0.099 0.283-0.133 0.378v0c-0.238 0.679-0.572 1.258-1.001 1.735-0.435 0.476-0.933 0.838-1.494 1.086-0.569 0.252-1.181 0.387-1.837 0.404-0.662 0.015-1.333-0.097-2.011-0.335v0c-0.931-0.327-1.701-0.809-2.311-1.447-0.612-0.632-1.064-1.355-1.356-2.172-0.295-0.81-0.441-1.67-0.44-2.58 0.01-0.915 0.168-1.806 0.473-2.674v0c0.137-0.39 0.293-0.784 0.467-1.181 0.171-0.406 0.365-0.797 0.582-1.173 0.213-0.384 0.444-0.752 0.694-1.102 0.242-0.346 0.509-0.665 0.802-0.958v0l4.652 2.142c-0.372 0.477-0.721 0.987-1.046 1.529-0.333 0.547-0.598 1.1-0.794 1.66v0c-0.038 0.107-0.081 0.24-0.13 0.399-0.051 0.166-0.099 0.343-0.144 0.533-0.043 0.183-0.078 0.372-0.104 0.567-0.02 0.198-0.023 0.377-0.009 0.537 0.018 0.169 0.069 0.317 0.151 0.445 0.076 0.126 0.192 0.209 0.347 0.249v0c0.178 0.056 0.342 0.042 0.491-0.039 0.151-0.088 0.289-0.22 0.414-0.395 0.129-0.167 0.245-0.366 0.348-0.599 0.107-0.224 0.203-0.448 0.289-0.672 0.082-0.233 0.157-0.446 0.225-0.641 0.064-0.203 0.128-0.365 0.191-0.484v0c0.259-0.616 0.59-1.138 0.995-1.568 0.409-0.421 0.864-0.742 1.366-0.962 0.507-0.217 1.055-0.329 1.643-0.334 0.592 0.003 1.206 0.116 1.841 0.339z" fill="#fcdb7c" data-fill-palette-color="accent"></path><path d="M28.932 35.037v0c0.59 0.436 1.147 0.91 1.672 1.422v0c-0.777 1.208-1.504 2.444-2.182 3.708-0.674 1.259-1.352 2.519-2.034 3.779v0c0.618 0.184 1.211 0.195 1.777 0.034 0.563-0.156 1.036-0.494 1.421-1.014v0c0.202-0.273 0.369-0.606 0.501-0.997 0.136-0.397 0.246-0.809 0.329-1.236 0.078-0.431 0.141-0.857 0.187-1.279 0.037-0.42 0.063-0.786 0.078-1.098v0l4.228 3.883c0.01 0.413-0.029 0.824-0.115 1.232-0.086 0.408-0.207 0.813-0.362 1.212-0.16 0.396-0.341 0.775-0.543 1.14-0.212 0.365-0.439 0.712-0.681 1.038v0c-0.491 0.665-1.032 1.206-1.622 1.623-0.594 0.423-1.219 0.736-1.875 0.939-0.66 0.209-1.337 0.317-2.031 0.326-0.694 0.009-1.385-0.071-2.073-0.239-0.692-0.163-1.374-0.406-2.046-0.729-0.671-0.314-1.307-0.693-1.908-1.137v0c-0.627-0.463-1.211-0.986-1.75-1.567-0.544-0.576-1.018-1.196-1.423-1.859-0.409-0.658-0.731-1.348-0.968-2.071-0.232-0.718-0.361-1.452-0.388-2.2-0.021-0.745 0.085-1.495 0.32-2.25 0.231-0.749 0.613-1.486 1.149-2.209v0c0.444-0.6 0.931-1.086 1.461-1.456 0.531-0.37 1.088-0.642 1.672-0.816 0.575-0.172 1.173-0.252 1.793-0.24 0.612 0.013 1.228 0.104 1.85 0.273 0.617 0.174 1.227 0.414 1.83 0.718 0.603 0.305 1.181 0.661 1.733 1.07zM25.646 38.861l-0.225-0.166c-0.188-0.139-0.396-0.26-0.626-0.364-0.226-0.109-0.456-0.179-0.69-0.211-0.228-0.028-0.449-0.004-0.661 0.071-0.214 0.065-0.404 0.211-0.571 0.436v0c-0.198 0.268-0.302 0.56-0.311 0.875-0.006 0.311 0.046 0.622 0.154 0.935 0.113 0.307 0.262 0.604 0.448 0.891 0.186 0.287 0.37 0.531 0.553 0.732v0z" fill="#fcdb7c" data-fill-palette-color="accent"></path><path d="M56.106 16.718v0c0.659 1.002 1.285 2.022 1.88 3.06 0.59 1.032 1.173 2.076 1.749 3.133v0l-5.241 3.803c-0.64-1.326-1.297-2.641-1.97-3.944-0.677-1.309-1.419-2.577-2.224-3.802v0c-0.051-0.078-0.142-0.21-0.272-0.395-0.134-0.191-0.289-0.404-0.467-0.638-0.178-0.234-0.369-0.471-0.575-0.711-0.205-0.24-0.406-0.455-0.603-0.645-0.202-0.186-0.385-0.325-0.549-0.416-0.169-0.088-0.307-0.097-0.413-0.028v0c-0.245 0.161-0.377 0.379-0.395 0.655-0.015 0.281 0.029 0.571 0.13 0.871 0.105 0.306 0.237 0.598 0.396 0.876 0.168 0.28 0.307 0.504 0.417 0.671v0c0.194 0.295 0.394 0.587 0.599 0.874 0.207 0.279 0.413 0.574 0.618 0.886v0c0.714 1.086 1.398 2.187 2.053 3.305 0.656 1.108 1.303 2.23 1.938 3.367v0l-4.852 3.465c-0.646-1.322-1.304-2.632-1.974-3.931-0.676-1.295-1.418-2.557-2.227-3.788v0c-0.051-0.078-0.148-0.214-0.291-0.406-0.137-0.197-0.299-0.418-0.484-0.663-0.181-0.24-0.381-0.483-0.6-0.731-0.213-0.251-0.419-0.474-0.619-0.669-0.206-0.192-0.395-0.334-0.568-0.428-0.171-0.103-0.315-0.116-0.433-0.039v0c-0.173 0.113-0.272 0.278-0.297 0.494-0.035 0.214-0.017 0.454 0.054 0.719 0.07 0.265 0.172 0.541 0.305 0.828 0.137 0.293 0.279 0.57 0.427 0.832 0.148 0.262 0.291 0.503 0.428 0.724 0.134 0.215 0.232 0.378 0.296 0.487v0l4.807 7.822-5.296 3.482c-0.659-1.258-1.325-2.519-1.997-3.784-0.666-1.269-1.345-2.525-2.035-3.77-0.7-1.247-1.411-2.486-2.133-3.719-0.724-1.223-1.478-2.43-2.262-3.621v0l4.859-3.493 0.779 1.222c0.028-0.297 0.073-0.61 0.136-0.939 0.067-0.323 0.158-0.639 0.276-0.946 0.115-0.299 0.264-0.581 0.449-0.846 0.188-0.259 0.416-0.477 0.683-0.652v0c0.34-0.223 0.662-0.4 0.969-0.529 0.309-0.124 0.616-0.197 0.919-0.222 0.307-0.018 0.617 0.029 0.93 0.142 0.31 0.107 0.64 0.289 0.992 0.545v0c0.058-0.397 0.133-0.774 0.227-1.13 0.089-0.362 0.21-0.7 0.361-1.015 0.152-0.315 0.348-0.611 0.588-0.889 0.24-0.278 0.539-0.533 0.895-0.768v0c0.679-0.447 1.345-0.696 1.996-0.75 0.645-0.049 1.27 0.039 1.872 0.265 0.609 0.222 1.187 0.556 1.735 1.001 0.544 0.44 1.06 0.934 1.549 1.482 0.49 0.539 0.942 1.099 1.356 1.681 0.414 0.581 0.784 1.12 1.109 1.615z" fill="#fcdb7c" data-fill-palette-color="accent"></path><path d="M63.787 4.351l6.35-2.126 3.734 16.735-5.04 1.69z" fill="#fcdb7c" data-fill-palette-color="accent"></path><path d="M95.146 0.59v0l-0.356 5.316c-0.241-0.062-0.482-0.105-0.722-0.128-0.234-0.016-0.47-0.022-0.71-0.017v0c-0.6 0.011-1.168 0.094-1.706 0.25-0.537 0.163-1.009 0.404-1.417 0.725-0.408 0.314-0.734 0.709-0.979 1.187-0.238 0.477-0.352 1.039-0.34 1.685v0c0.008 0.473 0.086 0.882 0.232 1.226 0.146 0.344 0.348 0.63 0.605 0.859 0.264 0.222 0.577 0.39 0.938 0.504 0.368 0.107 0.776 0.156 1.223 0.148v0c0.307-0.005 0.623-0.041 0.948-0.106 0.325-0.066 0.65-0.158 0.975-0.278 0.331-0.112 0.646-0.245 0.943-0.396 0.297-0.145 0.575-0.3 0.831-0.465v0l-0.095 5.921c-0.324 0.172-0.674 0.325-1.052 0.458-0.371 0.14-0.755 0.26-1.154 0.361-0.398 0.107-0.797 0.187-1.195 0.241-0.392 0.06-0.768 0.094-1.128 0.1v0c-1.193 0.021-2.283-0.183-3.27-0.613-0.981-0.429-1.828-1.021-2.541-1.775-0.713-0.754-1.272-1.634-1.676-2.64-0.404-1.006-0.617-2.085-0.637-3.238v0c-0.024-1.373 0.146-2.659 0.512-3.858 0.372-1.193 0.93-2.236 1.674-3.129 0.744-0.886 1.672-1.589 2.783-2.109 1.111-0.519 2.389-0.792 3.835-0.817v0c0.58-0.01 1.167 0.026 1.761 0.109 0.601 0.083 1.174 0.243 1.718 0.479z" fill="#fcdb7c" data-fill-palette-color="accent"></path><path d="M121.213 13.973v0c-0.216 0.735-0.506 1.418-0.871 2.047-0.371 0.627-0.801 1.192-1.289 1.695-0.496 0.507-1.043 0.941-1.641 1.3-0.598 0.359-1.235 0.635-1.909 0.826-0.672 0.185-1.37 0.279-2.094 0.283-0.723 0.003-1.459-0.105-2.207-0.324v0c-0.729-0.214-1.393-0.509-1.99-0.886-0.604-0.379-1.142-0.818-1.615-1.317-0.47-0.506-0.87-1.061-1.199-1.664-0.322-0.608-0.561-1.248-0.719-1.919-0.157-0.671-0.229-1.362-0.215-2.074 0.008-0.713 0.116-1.428 0.326-2.144v0c0.204-0.697 0.492-1.359 0.863-1.986 0.363-0.623 0.792-1.185 1.286-1.686 0.494-0.501 1.038-0.935 1.632-1.303 0.6-0.366 1.231-0.646 1.893-0.841 0.663-0.201 1.35-0.306 2.06-0.313 0.712-0.013 1.43 0.086 2.153 0.297v0c1.17 0.343 2.182 0.837 3.034 1.484 0.861 0.641 1.532 1.397 2.013 2.267 0.481 0.87 0.771 1.837 0.869 2.9 0.09 1.068-0.037 2.187-0.38 3.358zM115.767 12.72v0c0.101-0.345 0.148-0.696 0.142-1.052-0.007-0.356-0.069-0.69-0.186-1.002-0.119-0.306-0.299-0.581-0.539-0.825-0.243-0.238-0.546-0.41-0.911-0.517v0c-0.384-0.112-0.742-0.145-1.076-0.097-0.34 0.046-0.651 0.16-0.934 0.341-0.28 0.175-0.524 0.402-0.731 0.682-0.209 0.286-0.365 0.605-0.468 0.957v0c-0.099 0.339-0.148 0.693-0.144 1.062-0.003 0.367 0.051 0.716 0.162 1.047 0.113 0.325 0.288 0.616 0.525 0.873 0.233 0.249 0.538 0.428 0.915 0.539v0c0.384 0.112 0.747 0.139 1.091 0.08 0.344-0.059 0.659-0.185 0.945-0.379 0.278-0.189 0.523-0.434 0.735-0.733 0.213-0.299 0.37-0.624 0.474-0.976z" fill="#fcdb7c" data-fill-palette-color="accent"></path><path d="M134.393 24.57l4.273 2.8-3.507 4.384-9.317-5.115 10.19-14.8 5.468 3.584z" fill="#fcdb7c" data-fill-palette-color="accent"></path><path d="M158.221 43.972v0c-0.589 0.491-1.21 0.895-1.863 1.214-0.658 0.314-1.33 0.544-2.015 0.69-0.695 0.145-1.39 0.2-2.088 0.165-0.697-0.035-1.379-0.161-2.045-0.378-0.661-0.221-1.293-0.532-1.895-0.932-0.602-0.4-1.153-0.9-1.653-1.499v0c-0.486-0.584-0.873-1.199-1.159-1.845-0.291-0.651-0.493-1.315-0.607-1.993-0.108-0.682-0.131-1.365-0.069-2.05 0.072-0.684 0.229-1.349 0.473-1.994 0.243-0.645 0.569-1.259 0.977-1.842 0.404-0.588 0.892-1.121 1.466-1.599v0c0.558-0.465 1.166-0.854 1.824-1.168 0.649-0.315 1.318-0.543 2.007-0.683 0.689-0.141 1.383-0.198 2.081-0.173 0.702 0.031 1.382 0.149 2.04 0.356 0.663 0.202 1.291 0.498 1.885 0.889 0.599 0.386 1.139 0.868 1.622 1.446v0c0.781 0.937 1.345 1.911 1.693 2.923 0.357 1.012 0.493 2.013 0.408 3.004-0.085 0.991-0.384 1.955-0.895 2.892-0.521 0.937-1.249 1.796-2.186 2.577zM154.397 39.897v0c0.277-0.23 0.511-0.495 0.704-0.795 0.193-0.299 0.328-0.611 0.405-0.935 0.072-0.32 0.076-0.648 0.012-0.986-0.069-0.333-0.225-0.645-0.469-0.937v0c-0.256-0.307-0.536-0.534-0.839-0.68-0.308-0.151-0.63-0.23-0.965-0.237-0.33-0.011-0.659 0.042-0.987 0.159-0.333 0.121-0.64 0.299-0.922 0.534v0c-0.271 0.226-0.509 0.493-0.712 0.801-0.207 0.303-0.357 0.623-0.449 0.96-0.087 0.333-0.104 0.672-0.05 1.017 0.055 0.336 0.208 0.655 0.459 0.958v0c0.256 0.307 0.543 0.532 0.862 0.674 0.318 0.143 0.65 0.213 0.996 0.212 0.336-0.003 0.676-0.069 1.018-0.199 0.343-0.13 0.655-0.312 0.937-0.546z" fill="#fcdb7c" data-fill-palette-color="accent"></path><path d="M166.251 69.135v0c-0.888 0.346-1.768 0.675-2.641 0.987-0.87 0.318-1.75 0.629-2.641 0.934v0l-2.512-6.8c1.477-0.304 2.938-0.638 4.384-1.002 1.444-0.37 2.867-0.829 4.27-1.376v0c0.106-0.041 0.269-0.108 0.49-0.202 0.227-0.096 0.479-0.212 0.755-0.348 0.276-0.136 0.554-0.284 0.836-0.444 0.281-0.16 0.534-0.326 0.759-0.5 0.222-0.165 0.393-0.332 0.513-0.5 0.114-0.166 0.142-0.324 0.084-0.473v0c-0.104-0.267-0.27-0.463-0.498-0.589-0.225-0.12-0.483-0.194-0.774-0.224-0.294-0.021-0.608-0.01-0.941 0.035-0.331 0.05-0.656 0.116-0.975 0.197-0.316 0.088-0.614 0.179-0.891 0.273-0.272 0.092-0.495 0.171-0.669 0.239v0c-1.399 0.503-2.783 1.007-4.153 1.513-1.376 0.508-2.766 1.015-4.171 1.52v0l-2.584-5.881c2.817-0.92 5.618-1.837 8.402-2.752 2.781-0.92 5.567-1.875 8.358-2.863v0l2.437 5.423-1.89 0.684c0.352 0.113 0.695 0.251 1.03 0.413 0.329 0.165 0.633 0.358 0.913 0.578 0.281 0.226 0.535 0.482 0.76 0.766 0.225 0.284 0.408 0.606 0.548 0.966v0c0.259 0.664 0.377 1.287 0.354 1.869-0.027 0.59-0.157 1.138-0.389 1.643-0.232 0.505-0.559 0.98-0.98 1.423-0.415 0.441-0.882 0.848-1.401 1.223-0.519 0.374-1.081 0.722-1.685 1.043-0.596 0.325-1.193 0.619-1.792 0.882-0.596 0.268-1.18 0.514-1.751 0.736-0.571 0.223-1.09 0.425-1.555 0.607z" fill="#fcdb7c" data-fill-palette-color="accent"></path><path d="M14.406 124.832v0c-1.082 0.379-2.09 0.525-3.025 0.436-0.944-0.093-1.796-0.369-2.559-0.83-0.764-0.467-1.433-1.086-2.008-1.859-0.577-0.779-1.041-1.669-1.391-2.669v0c-0.135-0.384-0.229-0.824-0.283-1.32-0.063-0.501-0.101-1.013-0.116-1.538-0.008-0.527-0.001-1.041 0.02-1.543 0.024-0.496 0.055-0.941 0.093-1.336v0l5.059-1.192c-0.166 0.814-0.211 1.663-0.134 2.548 0.073 0.893 0.247 1.732 0.523 2.518v0c0.053 0.151 0.123 0.331 0.211 0.54 0.088 0.209 0.197 0.401 0.328 0.574 0.123 0.169 0.268 0.301 0.436 0.398 0.166 0.09 0.359 0.097 0.579 0.019v0c0.145-0.051 0.254-0.142 0.328-0.274 0.074-0.132 0.119-0.285 0.135-0.46 0.016-0.175 0.007-0.363-0.028-0.563-0.028-0.202-0.068-0.396-0.12-0.583-0.045-0.189-0.095-0.362-0.15-0.519-0.055-0.157-0.099-0.283-0.132-0.377v0c-0.238-0.679-0.335-1.337-0.29-1.975 0.039-0.635 0.198-1.228 0.478-1.778 0.282-0.544 0.674-1.028 1.176-1.451 0.501-0.423 1.092-0.754 1.77-0.992v0c0.931-0.326 1.829-0.433 2.695-0.32 0.874 0.117 1.68 0.4 2.417 0.848 0.734 0.442 1.382 1.02 1.942 1.734 0.555 0.716 0.985 1.509 1.29 2.376v0c0.137 0.39 0.264 0.794 0.382 1.211 0.118 0.418 0.211 0.844 0.279 1.28 0.072 0.427 0.123 0.854 0.153 1.281 0.021 0.423 0.011 0.837-0.031 1.24v0l-4.961 1.231c-0.005-0.599-0.05-1.211-0.136-1.838-0.082-0.635-0.221-1.233-0.417-1.792v0c-0.035-0.101-0.084-0.228-0.145-0.384-0.064-0.161-0.136-0.327-0.216-0.496-0.083-0.176-0.174-0.345-0.274-0.508-0.108-0.167-0.219-0.312-0.332-0.434-0.118-0.114-0.245-0.196-0.383-0.247-0.144-0.048-0.29-0.043-0.44 0.016v0c-0.165 0.072-0.281 0.187-0.345 0.344-0.065 0.157-0.095 0.344-0.089 0.561 0.012 0.215 0.046 0.443 0.102 0.684 0.063 0.239 0.131 0.473 0.204 0.702 0.073 0.229 0.148 0.442 0.225 0.642 0.075 0.193 0.125 0.355 0.15 0.487v0c0.183 0.642 0.247 1.259 0.193 1.85-0.05 0.583-0.202 1.116-0.456 1.601-0.256 0.478-0.615 0.904-1.077 1.278-0.458 0.365-1.001 0.658-1.63 0.879z" fill="#fcdb7c" data-fill-palette-color="accent"></path><path d="M30.932 144.062v0c-0.584 0.432-1.198 0.823-1.842 1.175v0c-0.926-1.097-1.893-2.152-2.899-3.166-1.002-1.008-2.003-2.021-3.003-3.039v0c-0.356 0.528-0.54 1.086-0.552 1.675-0.012 0.589 0.172 1.141 0.552 1.656v0c0.198 0.268 0.467 0.525 0.806 0.772 0.336 0.241 0.695 0.464 1.079 0.669 0.384 0.205 0.771 0.387 1.162 0.546 0.385 0.163 0.728 0.295 1.027 0.398v0l-4.932 2.897c-0.398-0.112-0.779-0.27-1.144-0.472-0.365-0.203-0.716-0.436-1.053-0.701-0.327-0.264-0.637-0.548-0.929-0.855-0.287-0.31-0.549-0.626-0.787-0.947v0c-0.491-0.665-0.849-1.34-1.075-2.027-0.222-0.681-0.338-1.366-0.349-2.054-0.002-0.686 0.095-1.363 0.29-2.029 0.199-0.661 0.476-1.296 0.83-1.906 0.363-0.608 0.795-1.184 1.296-1.728 0.497-0.55 1.046-1.046 1.646-1.49v0c0.622-0.459 1.29-0.862 2.004-1.207 0.705-0.347 1.432-0.619 2.181-0.816 0.749-0.197 1.501-0.301 2.256-0.312 0.755-0.011 1.491 0.083 2.209 0.282 0.714 0.193 1.396 0.51 2.045 0.951 0.649 0.441 1.238 1.02 1.769 1.738v0c0.444 0.6 0.764 1.208 0.962 1.824 0.198 0.616 0.295 1.224 0.291 1.824-0.01 0.604-0.109 1.199-0.297 1.785-0.192 0.581-0.462 1.141-0.81 1.68-0.338 0.54-0.742 1.054-1.21 1.541-0.469 0.487-0.976 0.933-1.523 1.336zM28.247 139.806l0.225-0.166c0.188-0.139 0.367-0.3 0.537-0.484 0.167-0.189 0.297-0.389 0.391-0.599 0.093-0.21 0.14-0.427 0.14-0.651-0.009-0.225-0.095-0.448-0.257-0.668v0c-0.198-0.268-0.445-0.45-0.74-0.547-0.299-0.102-0.612-0.144-0.939-0.126-0.325 0.008-0.65 0.062-0.974 0.16-0.329 0.094-0.618 0.196-0.868 0.306v0z" fill="#fcdb7c" data-fill-palette-color="accent"></path><path d="M55.638 164.507v0c-0.656 0.997-1.34 1.97-2.053 2.922-0.719 0.947-1.449 1.894-2.192 2.841v0l-5.543-3.287c0.96-1.108 1.905-2.229 2.834-3.364 0.93-1.135 1.796-2.313 2.599-3.532v0c0.051-0.078 0.136-0.213 0.255-0.406 0.123-0.199 0.256-0.426 0.401-0.682 0.139-0.26 0.28-0.529 0.424-0.809 0.139-0.284 0.254-0.551 0.347-0.801 0.091-0.259 0.146-0.482 0.165-0.669 0.014-0.19-0.033-0.321-0.138-0.39v0c-0.245-0.161-0.499-0.193-0.763-0.096-0.26 0.092-0.508 0.244-0.743 0.457-0.235 0.212-0.448 0.451-0.639 0.717-0.192 0.256-0.344 0.468-0.453 0.635v0c-0.194 0.295-0.378 0.593-0.552 0.893-0.183 0.302-0.375 0.607-0.577 0.913v0c-0.71 1.08-1.444 2.141-2.201 3.183-0.762 1.038-1.537 2.076-2.323 3.114v0l-5.091-3.085c0.96-1.108 1.898-2.225 2.816-3.353 0.921-1.133 1.782-2.31 2.584-3.529v0c0.051-0.078 0.14-0.219 0.267-0.423 0.13-0.21 0.266-0.447 0.408-0.712 0.148-0.262 0.295-0.54 0.441-0.835 0.146-0.295 0.264-0.572 0.356-0.831 0.1-0.261 0.159-0.49 0.176-0.686 0.021-0.202-0.024-0.339-0.136-0.412v0c-0.173-0.114-0.363-0.139-0.572-0.077-0.21 0.053-0.423 0.164-0.638 0.334-0.215 0.17-0.428 0.372-0.64 0.608-0.211 0.236-0.407 0.474-0.588 0.714-0.181 0.24-0.345 0.463-0.49 0.671-0.143 0.217-0.25 0.374-0.321 0.471v0l-5.26 7.488-5.279-3.472c0.884-1.102 1.775-2.207 2.672-3.316 0.901-1.115 1.781-2.235 2.64-3.36 0.865-1.122 1.718-2.26 2.558-3.415 0.836-1.149 1.644-2.317 2.423-3.503v0l5.124 3.07-0.827 1.203c0.284-0.092 0.589-0.175 0.916-0.247 0.327-0.072 0.65-0.115 0.97-0.128 0.325-0.009 0.643 0.016 0.954 0.078 0.313 0.07 0.603 0.193 0.87 0.368v0c0.34 0.223 0.629 0.45 0.869 0.68 0.24 0.23 0.426 0.48 0.56 0.751 0.139 0.275 0.22 0.575 0.244 0.902 0.021 0.333-0.018 0.706-0.115 1.121v0c0.389-0.095 0.765-0.175 1.127-0.24 0.364-0.056 0.72-0.077 1.07-0.062 0.349 0.014 0.699 0.077 1.049 0.187 0.35 0.111 0.7 0.281 1.051 0.512v0c0.679 0.447 1.17 0.957 1.471 1.53 0.301 0.573 0.469 1.178 0.505 1.816 0.037 0.647-0.041 1.305-0.235 1.975-0.192 0.68-0.436 1.348-0.733 2.007-0.306 0.66-0.644 1.295-1.014 1.905-0.36 0.609-0.703 1.161-1.03 1.656z" fill="#fcdb7c" data-fill-palette-color="accent"></path><path d="M68.288 160.011l6.518 1.448-5.416 16.206-5.161-1.143z" fill="#fcdb7c" data-fill-palette-color="accent"></path><path d="M95.426 163.515v0l-0.542 5.279c-0.245-0.071-0.484-0.122-0.718-0.152-0.233-0.031-0.469-0.048-0.709-0.053v0c-0.593-0.01-1.161 0.056-1.703 0.2-0.542 0.137-1.023 0.359-1.441 0.665-0.419 0.299-0.755 0.683-1.01 1.152-0.255 0.469-0.388 1.023-0.399 1.663v0c-0.008 0.466 0.055 0.874 0.188 1.223 0.127 0.355 0.319 0.649 0.575 0.88 0.249 0.231 0.553 0.41 0.91 0.536 0.364 0.126 0.766 0.193 1.206 0.201v0c0.313 0.005 0.63-0.022 0.952-0.083 0.328-0.054 0.656-0.135 0.984-0.243 0.328-0.101 0.644-0.219 0.946-0.353 0.302-0.135 0.585-0.28 0.847-0.435v0l-0.303 5.883c-0.329 0.161-0.682 0.301-1.057 0.422-0.382 0.127-0.771 0.233-1.166 0.319-0.402 0.093-0.799 0.159-1.193 0.199-0.401 0.046-0.781 0.066-1.141 0.06v0c-1.186-0.021-2.262-0.263-3.226-0.726-0.965-0.457-1.788-1.075-2.468-1.853-0.686-0.779-1.214-1.674-1.582-2.688-0.362-1.02-0.533-2.102-0.513-3.248v0c0.024-1.366 0.24-2.639 0.647-3.818 0.407-1.179 0.998-2.199 1.773-3.059 0.768-0.86 1.717-1.53 2.845-2.009 1.121-0.474 2.405-0.698 3.851-0.673v0c0.573 0.01 1.155 0.067 1.747 0.171 0.592 0.097 1.158 0.277 1.7 0.54z" fill="#fcdb7c" data-fill-palette-color="accent"></path><path d="M120.787 165.258v0c0.214 0.729 0.337 1.457 0.37 2.184 0.026 0.729-0.03 1.436-0.17 2.123-0.147 0.682-0.372 1.335-0.675 1.959-0.31 0.626-0.697 1.201-1.161 1.725-0.46 0.517-0.994 0.969-1.603 1.356-0.607 0.393-1.285 0.7-2.032 0.919v0c-0.716 0.21-1.431 0.319-2.144 0.327-0.705 0.012-1.391-0.064-2.058-0.23-0.669-0.172-1.302-0.424-1.899-0.756-0.597-0.332-1.144-0.738-1.638-1.217-0.487-0.475-0.916-1.016-1.288-1.623-0.379-0.604-0.672-1.261-0.881-1.971v0c-0.206-0.703-0.321-1.413-0.343-2.129-0.031-0.72 0.023-1.424 0.163-2.11 0.147-0.682 0.371-1.338 0.672-1.969 0.301-0.63 0.678-1.206 1.129-1.727 0.456-0.53 0.978-0.988 1.566-1.376 0.594-0.39 1.249-0.689 1.966-0.899v0c1.164-0.341 2.278-0.474 3.342-0.397 1.066 0.083 2.036 0.358 2.909 0.824 0.875 0.473 1.636 1.128 2.285 1.966 0.65 0.844 1.147 1.851 1.49 3.021zM115.546 167.139v0c-0.101-0.345-0.251-0.666-0.449-0.962-0.198-0.296-0.429-0.541-0.694-0.734-0.267-0.2-0.564-0.335-0.89-0.406-0.335-0.075-0.687-0.059-1.058 0.05v0c-0.371 0.109-0.686 0.278-0.946 0.507-0.255 0.221-0.453 0.48-0.594 0.778-0.148 0.3-0.23 0.623-0.248 0.969-0.021 0.354 0.02 0.706 0.123 1.058v0c0.099 0.339 0.246 0.661 0.439 0.965 0.195 0.311 0.429 0.576 0.702 0.794 0.277 0.21 0.581 0.358 0.911 0.441 0.332 0.09 0.687 0.08 1.064-0.03v0c0.377-0.111 0.695-0.284 0.952-0.519 0.256-0.242 0.452-0.518 0.59-0.83 0.13-0.316 0.204-0.654 0.224-1.013 0.019-0.36-0.022-0.716-0.126-1.068z" fill="#fcdb7c" data-fill-palette-color="accent"></path><path d="M136.857 159.786l4.255-2.791 2.605 4.939-8.364 6.477-9.479-15.183 5.451-3.574z" fill="#fcdb7c" data-fill-palette-color="accent"></path><path d="M157.103 135.716v0c0.584 0.486 1.092 1.022 1.524 1.607 0.428 0.59 0.775 1.209 1.043 1.857 0.258 0.648 0.435 1.316 0.531 2.003 0.092 0.692 0.091 1.385-0.002 2.08-0.093 0.685-0.285 1.358-0.574 2.019-0.285 0.665-0.676 1.297-1.176 1.896v0c-0.478 0.574-1.01 1.062-1.598 1.466-0.578 0.403-1.19 0.722-1.836 0.956-0.651 0.23-1.317 0.374-1.998 0.431-0.681 0.058-1.361 0.025-2.039-0.097-0.669-0.123-1.327-0.333-1.974-0.629-0.651-0.291-1.261-0.673-1.829-1.146v0c-0.563-0.469-1.054-0.994-1.472-1.576-0.427-0.581-0.774-1.195-1.041-1.843-0.258-0.648-0.438-1.318-0.539-2.009-0.101-0.691-0.11-1.379-0.025-2.063 0.083-0.694 0.261-1.365 0.532-2.015 0.276-0.655 0.653-1.269 1.131-1.843v0c0.776-0.932 1.627-1.663 2.553-2.192 0.932-0.525 1.89-0.838 2.875-0.937 0.99-0.095 1.987 0.024 2.992 0.358 1.01 0.338 1.984 0.897 2.922 1.677zM153.801 140.199v0c-0.277-0.23-0.58-0.413-0.909-0.548-0.329-0.136-0.658-0.21-0.986-0.222-0.333-0.017-0.654 0.036-0.965 0.159-0.32 0.124-0.604 0.334-0.851 0.631v0c-0.247 0.297-0.415 0.613-0.502 0.948-0.089 0.325-0.108 0.651-0.06 0.978 0.045 0.332 0.156 0.646 0.334 0.941 0.179 0.305 0.41 0.575 0.692 0.81v0c0.271 0.226 0.572 0.411 0.903 0.557 0.335 0.149 0.677 0.239 1.025 0.268 0.347 0.02 0.681-0.027 1.002-0.141 0.326-0.11 0.615-0.316 0.866-0.619v0c0.252-0.302 0.419-0.623 0.502-0.962 0.077-0.343 0.087-0.682 0.027-1.017-0.068-0.334-0.195-0.657-0.379-0.966-0.184-0.31-0.418-0.582-0.699-0.817z" fill="#fcdb7c" data-fill-palette-color="accent"></path><path d="M170.973 113.335v0c0.876 0.341 1.741 0.689 2.597 1.044 0.85 0.353 1.705 0.718 2.566 1.097v0l-2.741 6.678c-1.289-0.767-2.586-1.505-3.891-2.213-1.305-0.709-2.659-1.336-4.062-1.884v0c-0.099-0.039-0.263-0.095-0.492-0.17-0.232-0.083-0.493-0.167-0.781-0.251-0.293-0.093-0.597-0.175-0.912-0.248-0.321-0.075-0.621-0.124-0.898-0.146-0.277-0.022-0.517-0.012-0.72 0.031-0.196 0.045-0.324 0.142-0.382 0.291v0c-0.102 0.261-0.111 0.515-0.028 0.761 0.085 0.241 0.225 0.47 0.418 0.689 0.202 0.215 0.442 0.416 0.72 0.602 0.275 0.193 0.559 0.364 0.851 0.515 0.284 0.153 0.56 0.29 0.828 0.408 0.262 0.116 0.477 0.207 0.645 0.273v0c1.364 0.574 2.721 1.139 4.071 1.693 1.353 0.549 2.713 1.114 4.081 1.698v0l-2.068 6.05c-2.684-1.225-5.355-2.437-8.013-3.638-2.662-1.209-5.349-2.388-8.063-3.538v0l1.87-5.623 1.844 0.772c-0.176-0.319-0.333-0.652-0.469-0.998-0.139-0.34-0.236-0.689-0.29-1.046-0.056-0.351-0.068-0.706-0.035-1.066 0.026-0.362 0.11-0.723 0.25-1.082v0c0.256-0.658 0.591-1.196 1.005-1.615 0.411-0.412 0.873-0.726 1.385-0.941 0.517-0.206 1.077-0.331 1.681-0.375 0.604-0.044 1.223-0.028 1.859 0.048 0.629 0.074 1.272 0.195 1.928 0.365 0.659 0.164 1.297 0.352 1.915 0.564 0.618 0.212 1.21 0.429 1.775 0.649 0.571 0.223 1.09 0.425 1.556 0.606z" fill="#fcdb7c" data-fill-palette-color="accent"></path><path d="M2.263 90.312c0-3.933 3.189-7.122 7.122-7.122 3.933 0 7.122 3.189 7.122 7.122 0 3.933-3.189 7.122-7.122 7.122-3.933 0-7.122-3.189-7.122-7.122z" fill="#fcdb7c" data-fill-palette-color="accent"></path><path d="M164.372 90.312c0-3.933 3.189-7.122 7.122-7.122 3.933 0 7.122 3.189 7.122 7.122 0 3.933-3.189 7.122-7.122 7.122-3.933 0-7.122-3.189-7.122-7.122z" fill="#fcdb7c" data-fill-palette-color="accent"></path></g><g id="text-1"></g></svg></g></svg></g></svg></g><defs></defs></svg><rect width="395.52" height="117.30705939450031" fill="none" stroke="none" visibility="hidden"></rect></g></svg></g></svg>